<svg version="1.0" xmlns="http://www.w3.org/2000/svg" width="2666.667" height="2666.667" viewBox="0 0 2000 2000"><path d="M865.5 91.7C807 96.4 757.9 123.1 724 168.5c-23.1 31-35.6 68.2-36.6 109l-.5 17-191.4.3-191.5.2v1509h475.8c463.8 0 475.6.1 472.7 1.9-4.4 2.6-8.7 8-8.3 10.5.7 4.8 11.2 8.5 30.3 10.6 12.4 1.4 61.5 1.2 81.5-.2 17.9-1.3 34.1-1.4 66.4-.3l20.9.7-.7-12.1c-.9-16.6-2.1-22.3-6.7-31.8-3.9-8.1-3.9-8.2-4-21l-.1-12.8-1.9 9.5c-2 10.1-2.6 11.1-10.1 15-5.1 2.7-14.2 5-19.8 5-7.3 0-17.8-2.7-26.2-6.6-4.3-2.1-8.3-4.3-8.9-5-.7-.8-.3-5.1 1.3-13.9l2.2-12.7 3 .7c14.8 3 24.1 3.7 45.1 3.2 22.1-.5 35.6-2.3 38.1-5 .6-.7 24.1-102.9 52.3-227.2 28.1-124.3 51.5-226.9 52-228 1-2.5 1.5-.2 7.6 33 11.8 64.8 35.4 229.7 54.2 379.2l4.8 38.2 4.6 1c12.6 2.7 20.3 3.3 44.9 3.3 21.7 0 28.8-.3 39.3-2 7-1.1 13-2.2 13.4-2.5.3-.3-.7-27.5-2.1-60.4-5.7-130.9-7.6-187.4-7.6-227.8 0-42-1.6-80-8-197-2.3-40.9-8.6-147.5-9.1-153.2-.5-6-14.9 54.7-14.9 63 0 4.6-1.3 5.1-6.6 2.4-18.6-9.4-36-30.6-46.9-57.2-2.7-6.4-3.4-9-2.5-9.3.7-.3 4.8-2.2 9.1-4.4 12.6-6.3 14.1-8.8 21.2-34.6 1.8-6.2 2.3-6.1-10.6-2.8-13.6 3.5-20.2 7-36.2 19.1-22.1 16.7-35.7 23.8-55 28.7-7.7 1.9-11.5 2.3-27 2.2-16.1 0-19.3-.3-29.8-2.8-13.1-3-31.3-9-41.5-13.7-3.6-1.6-6.6-2.8-6.8-2.6-.1.1-4.9 31-10.6 68.7l-10.3 68.4-.3-145.1-.2-145.1-10.3 10.3c-20.6 20.7-33 22.3-52.4 6.5l-6.3-5.1V1645l-6 34.2c-3.3 18.9-6.5 36.7-7.1 39.5l-1 5.3H373V371h310v-52h117.6l1.3-3.7c2-5.5 10.5-13.3 19.6-18 15.1-7.8 31.9-11.3 53.9-11.3 22.8.1 37.7 3 53.4 10.6 10.3 5 19.1 12.8 21.3 18.8l1.3 3.6H1069v52h294l.4 124.7c.2 68.7.4 125.7.4 126.8 0 1.1-.2 36.9-.4 79.6l-.4 77.6 4.1 10.4c2.3 5.7 7.4 19.8 11.4 31.3l7.2 20.9 8.2-13.6c6.2-10.3 8.1-14.3 8.1-17.2 0-5.4 17.4-46.6 26.6-63.1l3.4-6.1V295h-366.3l.6-6.9c.8-9.4-.9-30.7-3.4-43.7-14.3-74.2-73.4-133.9-147.5-148.9-17.3-3.5-36-5-49.9-3.8z"/><path d="M870.6 301.1c-1.9 1.5-2.6 3-2.6 5.5 0 4.7 1.4 7 5 8.3 8.3 2.8 14.7-7.2 8.5-13.4-3-3.1-7.3-3.2-10.9-.4zM1585 387c-16.2 1.7-26.5 4.7-40.6 12-7.2 3.7-15.5 7.5-18.5 8.5-19.2 6.3-37.9 20.6-44.3 33.8-4.9 10.2-4.3 21.1 1.5 27 2.5 2.4 3.5 2.8 6.1 2.3l3.1-.6-.7 5c-1.1 8.1.3 15 3.6 18.4 2.8 2.7 3.2 2.8 9.8 2.4 7.7-.6 13.7-3.5 14.5-7.1.2-1.2 1.6-8.5 3-16.2 1.4-7.7 2.8-14.7 3.1-15.7.7-2.2 9.2-4.2 14.6-3.3 2.4.4 7.7 1.6 11.8 2.8 6.2 1.7 10 2.1 21.5 2 7.7 0 16-.5 18.5-1s5.2-.6 6-.2c.8.4 3.8 1.8 6.5 3.2 2.8 1.4 7.6 3.3 10.8 4.2 3.2.9 6 2.2 6.3 2.9.3.7-.5 6.6-1.7 13.2-1.6 8.7-2.3 16-2.3 26.9-.1 13.2.2 15.8 2.2 21.7 1.8 5.3 3.3 7.6 6.9 10.7l4.5 4-3.1 18.5c-1.7 10.1-3.1 19.3-3.1 20.4 0 1.4 1.2 2.5 4 3.6 2.2.9 4.4 1.6 4.9 1.6.4 0 1.4-5.3 2.1-11.8 1.4-12.8 3.1-17.4 8-21.5 10.6-9 22.2-4.1 27.1 11.3 5.9 18.6.5 34-16 45.5-4.8 3.3-8.1 6.5-9.8 9.4l-2.6 4.4 6.3-.6c10.7-.9 21.5-7 33.1-18.6 11.1-11.2 18.5-21.9 27.3-40.1 13.6-27.9 19.9-52 20-76 0-15.2-1.5-22.5-6.5-32.8-7.6-15.6-25-25.9-47.1-27.9l-7.3-.6-3.9-8.1c-4.8-9.8-15.9-21.4-25.1-26.3-13.2-6.9-32.6-9.5-54.5-7.3zm-346.5 347.6c-24.7 19-51.2 39.2-58.7 44.9L1166 790l-28.1-25c-28.8-25.5-30.8-26.9-34.3-23.4-3.9 3.8-2.7 5.1 29.1 33.3 26.2 23.2 31.1 27.2 33.4 26.9 1.8-.2 22.9-15.7 61.7-45.2l58.9-45-.9-5c-.5-2.8-1.3-5.4-1.6-5.7-.4-.4-20.9 14.8-45.7 33.7zm220.9 67.6c.4 2.9 1.8 18.8 3.1 35.2 1.4 16.5 2.7 30.1 3 30.4 1.6 1.6 1.4-3.8-1-33.5-2.8-35.7-3-37.3-4.6-37.3-.7 0-.8 1.9-.5 5.2zm197.4 5.3c-1.6 1.6 7.5 31.8 16.3 54 3.3 8.2 8.8 21.1 12.2 28.5l6.3 13.5 5.7.3c3.5.2 5.7-.1 5.7-.8 0-.5-2.1-1-4.8-1h-4.9l-6.2-13.6c-12.5-27.3-21.7-52.2-26.1-70.4-2.2-9.4-3.1-11.6-4.2-10.5zM1235.3 1106c-37.5 28.6-68.6 52-69.2 52-.5 0-13.4-11-28.6-24.5-22.9-20.4-28.1-24.5-30.6-24.5-3.5 0-5.8 3.7-4.3 6.9.5 1.1 14.4 13.9 30.9 28.5 20.6 18.3 30.6 26.6 32.2 26.6 3.3 0 144.2-107.6 144.9-110.7.8-2.9-2-6.3-5-6.3-1.3 0-29.9 21.2-70.3 52zm68.7 360.8c-.8.3-31.9 23.7-69 52s-68 51.5-68.6 51.6c-.7.1-13.4-10.7-28.4-23.9-14.9-13.2-28-24.4-29-24.9-1.3-.6-2.7-.4-4.5.8-5.2 3.4-3.6 5.7 16.5 23.6 39.6 35.2 43.1 38.1 45.1 37.8 3.2-.5 143.8-108 144.5-110.5 1.1-4.1-2.7-7.8-6.6-6.5zm380.5 293.2c-8.5 1.3-21.1 5.5-27.1 8.9l-5.1 3-1.9 9.3c-2.3 11.2-2.6 33-.6 36.5 2.7 4.8 13.3 7.6 35.7 9.2 23.7 1.8 83.5.8 96.3-1.5 3.1-.6 3.2-.8 3.2-5.3 0-4.7-2.8-12.1-5.8-15.4-3.1-3.5-10.6-6.4-23-9.2-27.5-6-38.1-12.5-42.7-26.4-.9-2.7-2.1-5.4-2.8-5.9-4-3.1-16.6-4.6-26.2-3.2zM1056 1882.5c-1 1.2-1 1.9-.2 2.7 2.2 2.2 1.2 3.7-2.9 4.8-4.3 1.2-5 3.7-.8 3.2 1.3-.2 5.7-.6 9.7-.9 5-.4 7.2-.9 7.2-1.9 0-.8-1.5-1.4-4.2-1.6-4.2-.3-4.3-.4-4.3-3.8 0-3.9-2.3-5.2-4.5-2.5zm21.6 12.3c-.3.5 1.1 2.4 3.1 4.3 1.9 1.9 4.3 4.6 5.2 6.1 1.1 1.8 2.1 2.4 3 1.9 1-.7 1-1.4-.3-3.9-2-3.9-2-3.9.4-4.5 2.4-.6 2.7-3.5.4-4.4-1.1-.4-2.3.2-3.3 1.6l-1.7 2.2-1.9-2c-1.9-2.2-4-2.7-4.9-1.3zm35.8 1.5c-2.1 1.8-2.9 3.6-3.3 7.3-.5 4.4-.9 4.9-3.3 5.2-2.5.3-2.8.8-2.8 3.8 0 3.1.2 3.4 3 3.4h3v21h7v-21h4.5c4.5 0 4.5 0 4.5-3.4s-.1-3.5-4.2-3.8c-4.1-.3-4.3-.5-4.1-3.2.3-3.6 1.9-4.8 5.6-4.1 2.7.5 2.8.3 2.5-3.3-.3-3.6-.4-3.7-4.9-4-3.8-.2-5.2.2-7.5 2.1zm130.6-.3c-2.3 2.3-2.4 3.3-1 6.1 1.2 2.2 5.9 2.6 7.8.7 1.9-1.9 1.5-6.6-.7-7.8-2.8-1.4-3.8-1.3-6.1 1zm-192.9 1.6c-8.4 4.2-13.7 13.1-12.9 21.9.2 3.3.8 4.2 3.3 5.4 3.9 1.9 22 2 29.5.2 6.4-1.6 14.9-5.6 15.6-7.4.8-2.1-2.2-10.3-5.1-14-6.4-8.5-20-11.2-30.4-6.1zm7.4 10.9c2.8 2.7 3.2 6.1 1 9.2-4.9 7-16 0-12-7.7 2.4-4.7 7.2-5.4 11-1.5zm17.3-.9c2.6 1.8 2.8 5 .5 7.6-3.8 4.3-10.5 0-8.4-5.5.8-2.2 1.8-2.9 5.1-3.6.3 0 1.6.6 2.8 1.5zm180.2 8.4v21h8v-10.4l5.3 5.2c4.9 4.8 5.6 5.2 10.1 5.2h4.8l-6.6-7.4-6.6-7.4 6.7-6.6 6.8-6.6h-4.9c-4.3 0-5.3.5-10 4.6l-5.1 4.7-.3-11.7-.3-11.6h-7.9v21zm-518-11c0 3.8-.3 7-.7 7-.3 0-1.4-.7-2.3-1.5-4.6-4.1-13.9-2.2-17.3 3.4-2.4 4.2-2.3 14.7.2 18.5 3.8 5.8 9.8 7.1 16.4 3.6 3.1-1.7 3.7-1.7 3.7-.5 0 .8.9 1.5 2 1.5 1.9 0 2-.7 2-19.5s-.1-19.5-2-19.5c-1.8 0-2 .7-2 7zm-5.7 7.9c4.5 1.7 5.7 3.8 5.7 10.2 0 4.5-.5 6.4-2 7.9-5 5-13 2.9-15.1-4-1.6-5.4.1-11.4 3.9-13.4 3.2-1.8 4.3-1.9 7.5-.7zM933 1905v7l-3.2-2c-6.5-3.9-13.7-1.6-16.9 5.3-5.2 11.5 1.6 23.8 12.3 22.4 2.2-.3 4.8-1.3 5.9-2.3 1.7-1.6 1.9-1.6 1.9-.1 0 1.1.8 1.7 2.5 1.7h2.5v-39h-2.5c-2.4 0-2.5.2-2.5 7zm-1.8 9.7c2.8 2.5 2.6 14.3-.3 16.9-2.9 2.6-9.3 2.5-12-.3-4.6-4.5-3.1-16 2.4-18.3 2.9-1.2 7.6-.4 9.9 1.7zm27.8 2.8c0 18.8.1 19.5 2 19.5 1.1 0 2-.7 2-1.5 0-1.1.7-1 3.5.7 4.9 2.8 10.7 2 14.9-2.1 2.6-2.6 3.1-3.9 3.4-9.4.6-9.7-3.1-15.4-10.7-16.4-3-.4-4.9 0-7.6 1.5l-3.5 2.1v-6.9c0-6.3-.2-7-2-7-1.9 0-2 .7-2 19.5zm18.2-2.6c2.8 2.5 3.2 3.4 3.2 8.1 0 4.7-.4 5.6-3.2 8.1-3.8 3.4-6.5 3.6-10.9.9-3.2-1.9-3.3-2.1-3.3-9s.1-7.1 3.3-9c4.4-2.7 7.1-2.5 10.9.9zm61-14.5c-2 2.7-4.2 3.4-4.2 1.5 0-.6-1-.9-2.2-.7-3 .4-2.9 3 0 4.3 1.8.8 2.2 1.5 1.7 3.5-1.1 4.2-1.1 4.4.8 4.8 1.1.2 1.7-.3 1.7-1.4 0-1 1.4-4.2 3.1-7.2 3.3-6 2.7-9.4-.9-4.8zm-231.8.1c-.8 2.1.2 4.5 1.9 4.5 2 0 4-2.7 3.3-4.5-.7-1.9-4.5-2-5.2 0zm-51.3 9.3c-9.7 5.2-9.5 21.9.3 26.6 1.9.9 4.8 1.6 6.5 1.6 4.1 0 11.1-2.9 11.1-4.5 0-2.2-1.6-2.6-4.6-1-4.7 2.4-9.1 1.9-12.5-1.4-1.6-1.6-2.9-3.9-2.9-5 0-2 .5-2.1 11-2.1h11v-3.3c0-9.6-11.1-15.6-19.9-10.9zm12.3 4.4c1.3 1.3 2.7 3.3 3.1 4.5.6 2.3.5 2.3-8.8 2.3-9 0-9.5-.1-9-2 1.7-6.4 9.9-9 14.7-4.8zm17-5.2c-2.8 1.1-5.4 4.8-5.4 7.7 0 3.5 3.2 6 10 7.9 6.9 1.9 8.7 4 6.4 7.2-1.9 2.8-7.7 2.9-12.1.3-2.7-1.7-3.2-1.8-3.7-.5-1 2.7-.7 3.2 3.9 5 8.8 3.3 17.5-.4 17.5-7.7 0-3.8-2.8-6.5-8.2-7.9-2.4-.6-5.3-1.5-6.5-2-2.5-1-3-3.9-1.1-5.8 1.7-1.7 7.9-1.5 10.6.4 2.3 1.6 4.2 1.2 4.2-1 0-3.3-10.5-5.7-15.6-3.6zm40.1 0c-4.6 1.8-6.9 5.8-7.3 12.4-.5 7.1 1.2 11.5 5.4 14.2 3.5 2.4 9.9 2.1 13.5-.5l2.9-2.2v3.1c0 4.4-4.7 9-9.2 9-1.8 0-4.8-.9-6.5-2-3.2-1.9-3.3-1.9-4.3.1-1 1.7-.6 2.2 3.2 3.9 7 3.2 15.1 2 18.8-2.7 1.8-2.3 2-4 2-18.9 0-15.7-.1-16.4-2-16.4-1.1 0-2 .7-2 1.5 0 1.2-.6 1.1-3.2-.5-3.4-2.1-7.8-2.5-11.3-1zm11.3 5c3.1 1.9 3.2 2.2 3.2 8.3 0 5.4-.4 6.7-2.4 8.6-2.8 2.7-8.6 3.2-11.2 1-5.1-4.2-5.3-13.2-.2-17.4 3.6-3 6.2-3.1 10.6-.5zm22.9-4c-3.1 1.7-3.7 1.7-3.7.5 0-.8-.9-1.5-2-1.5-1.9 0-2 .7-2 14s.1 14 2 14 2-.7 2-10.5V1916l3.3-2c3.8-2.4 6.6-2.5 9.3-.6 1.6 1.2 1.9 2.9 2.2 12.5.3 10.1.5 11.1 2.3 11.1 1.8 0 1.9-.9 1.9-12 0-11.5-.1-12.2-2.5-14.5-3-3.1-7.6-3.3-12.8-.5zm28.4-.2c-9.7 5.2-9.5 21.9.3 26.6 1.9.9 4.8 1.6 6.5 1.6 4.1 0 11.1-2.9 11.1-4.5 0-2.2-1.6-2.6-4.6-1-4.7 2.4-9.1 1.9-12.5-1.4-1.6-1.6-2.9-3.9-2.9-5 0-2 .5-2.1 11-2.1h11v-3.3c0-9.6-11.1-15.6-19.9-10.9zm12.3 4.4c1.3 1.3 2.7 3.3 3.1 4.5.6 2.3.5 2.3-8.8 2.3-9 0-9.5-.1-9-2 1.7-6.4 9.9-9 14.7-4.8zm239.8-4.6c-1.2.8-2.2 1-2.2.5 0-.6-1.8-1.1-4-1.1h-4v28h8v-8.6c0-4.7.5-9.4 1-10.4.6-1.1 2.6-2.2 4.5-2.6 3.5-.6 7.1-4.6 6-6.4-1-1.5-6.8-1.2-9.3.6zm15.1.4c-4.3 2.6-6.7 7.4-6.7 13.6 0 5.9 1.9 9.5 6.7 12.4 3.9 2.4 11.3 2.6 16.2.6 3.9-1.7 4.4-3.5 1.6-6-1.6-1.4-2.3-1.5-4.1-.6-3.2 1.7-7.8 1.5-10-.5-1.1-1-2-2.2-2-2.7 0-.4 4.5-.8 10-.8h10v-3.3c-.1-5.3-3.3-11.1-7.3-13-4.7-2.3-10.5-2.1-14.4.3zm12.5 7.7l1.4 2.3h-6.1c-6.3 0-7.2-.7-4.5-3.5 2.3-2.2 7.3-1.6 9.2 1.2zm18.6-8.1c-6.7 3.3-9.3 13.7-5.4 21.3 2.3 4.6 7 7.1 13.4 7.1 4.2 0 11.6-2.5 11.6-4 0-.4-1.1-1.7-2.5-3-2-1.9-2.7-2.1-3.9-1-2.7 2.1-8.8 1.5-10.9-1.2l-1.9-2.3 10.1-.3 10.1-.3v-4.2c0-10.6-10.8-16.9-20.6-12.1zm12 7.6c1.5 2.5.5 2.9-5.8 2.6l-5.7-.3 1.7-2.3c1.2-1.8 2.4-2.2 5.1-2 2 .2 4.1 1 4.7 2zm22.4-7.7c-1.6.9-2.8 1.1-2.8.5 0-.5-1.6-1-3.5-1h-3.5v40h8v-6.6c0-5.9.2-6.5 1.8-5.8.9.4 3.8.9 6.5 1.2 4.4.4 5 .1 8.6-3.5 6.5-6.4 6.7-15.4.7-22-2.7-3-4-3.6-8.2-3.9-3.2-.3-5.8.1-7.6 1.1zm10.2 8.1c2.4 2.3 1.9 9.3-.9 11.5-6.6 5.4-14.7-2.2-10.7-10 .9-1.6 2.4-3.2 3.3-3.4 2.6-.7 6.6.2 8.3 1.9zm-423 5.4c0 13.3.1 14 2 14s2-.7 2-14-.1-14-2-14-2 .7-2 14zm180-13.6c0 .2 2.5 6.3 5.5 13.6s5.5 14 5.5 15c0 2.8-4 7.1-6 6.5-1.2-.4-1.9.1-2.3 1.5-.4 1.5.1 2.2 1.8 2.6 2.5.6 7.9-1.7 8.8-3.8.3-.7 3.7-8.9 7.6-18.2 3.9-9.3 7.1-17.1 7.1-17.3 0-.1-1.1-.3-2.4-.3-2.1 0-2.9 1.1-5.6 7.7-1.8 4.3-3.9 9.4-4.7 11.3l-1.5 3.5-4.5-11.3c-4-9.9-4.8-11.2-6.9-11.2-1.3 0-2.4.2-2.4.4zm257 13.6v14h7v-28h-7v14z"/><path d="M1084.6 1922.9c-1.1 1.7-12.7 5.1-21.2 6.1-5.4.7-10.5.7-15 .1-3.7-.6-7.1-.8-7.4-.5-1 1.1 8.9 9 12.7 10.2 9.4 2.8 18.9.9 25.1-5.1 3.4-3.2 7.8-10.5 6.9-11.4-.3-.2-.8 0-1.1.6z"/></svg>