<svg width="18" height="18" viewBox="0 0 18 18" fill="none" xmlns="http://www.w3.org/2000/svg">
<path d="M9 0C4.02975 0 0 4.02975 0 9C0 13.9703 4.02975 18 9 18C13.9703 18 18 13.9703 18 9C18 4.02975 13.9703 0 9 0ZM14.0303 7.28025L8.36025 12.9503C8.21925 13.0913 8.02875 13.17 7.83 13.17C7.63125 13.17 7.44 13.0913 7.29975 12.9503L4.71 10.3605C4.41675 10.0672 4.41675 9.59325 4.71 9.3C5.00325 9.00675 5.47725 9.00675 5.7705 9.3L7.83 11.3595L12.9697 6.21975C13.263 5.9265 13.737 5.9265 14.0303 6.21975C14.3235 6.513 14.3235 6.987 14.0303 7.28025Z" fill="#A28B85"/>
</svg>
