<svg width="17" height="17" viewBox="0 0 17 17" fill="none" xmlns="http://www.w3.org/2000/svg">
<path d="M14.0451 0C13.6826 0 13.3201 0.138437 13.0434 0.415044L11.3335 2.12503L14.8752 5.66673L16.5852 3.95675C17.1384 3.40354 17.1384 2.50669 16.5852 1.95347L15.0467 0.415044C14.7701 0.138437 14.4076 0 14.0451 0ZM9.91678 3.54171L1.60069 11.8578C1.60069 11.8578 2.25078 11.7996 2.49303 12.0418C2.73528 12.2841 2.53586 13.8693 2.83337 14.1668C3.13087 14.4643 4.70615 14.2549 4.93211 14.4809C5.15807 14.7068 5.1424 15.3995 5.1424 15.3995L13.4585 7.08342L9.91678 3.54171ZM0.708342 14.1668L0.0401209 16.0594C0.0138519 16.1341 0.000290303 16.2127 0 16.2919C0 16.4797 0.0746286 16.6599 0.207468 16.7927C0.340308 16.9256 0.520478 17.0002 0.708342 17.0002C0.787514 16.9999 0.866078 16.9864 0.940766 16.9601C0.943077 16.9592 0.945383 16.9583 0.947684 16.9573L0.965669 16.9518C0.967056 16.9509 0.968439 16.9499 0.969819 16.949L2.83337 16.2919L1.77085 15.2293L0.708342 14.1668Z" fill="#A28B85"/>
</svg>
