<svg viewBox="0 0 800 800" xmlns="http://www.w3.org/2000/svg" xmlns:xlink="http://www.w3.org/1999/xlink"><style>:root&gt;svg{display:none}:root&gt;svg:target{display:block}</style><svg viewBox="0 0 24 24" id="add_btn" xmlns="http://www.w3.org/2000/svg"><path fill-rule="evenodd" clip-rule="evenodd" d="M23.112 4.494c.318-1.55-1.205-2.837-2.68-2.267L2.342 9.216c-1.647.637-1.72 2.941-.117 3.682l3.94 1.818 1.873 6.559a1 1 0 001.67.432l2.886-2.887 4.043 3.033a2 2 0 003.16-1.198l3.315-16.16zM3.063 11.082l18.09-6.99-3.316 16.161L13.1 16.7a1 1 0 00-1.307.093l-1.236 1.236.371-2.043 7.28-7.279a1 1 0 00-1.204-1.575L6.95 12.876l-3.888-1.794zm5.114 3.397l.606 2.123.233-1.281a1 1 0 01.277-.528l2.22-2.22-3.336 1.906z"/></svg><svg viewBox="0 0 22 16" id="arrow" xmlns="http://www.w3.org/2000/svg"><path d="M21.207 8.707a1 1 0 000-1.414L14.843.929a1 1 0 10-1.414 1.414L19.086 8l-5.657 5.657a1 1 0 001.414 1.414l6.364-6.364zM.5 9h20V7H.5v2z"/></svg><svg viewBox="0 0 24 24" id="calendar" xmlns="http://www.w3.org/2000/svg"><path fill-rule="evenodd" clip-rule="evenodd" d="M7 1.75a.75.75 0 01.75.75v.763c.662-.013 1.391-.013 2.194-.013h4.112c.803 0 1.532 0 2.194.013V2.5a.75.75 0 011.5 0v.827c.26.02.506.045.739.076 1.172.158 2.121.49 2.87 1.238.748.749 1.08 1.698 1.238 2.87.05.375.084.784.107 1.23a.747.747 0 01.019.46c.027.801.027 1.712.027 2.743V14a.75.75 0 01-1.5 0v-2c0-.854 0-1.597-.013-2.25H2.763c-.013.653-.013 1.396-.013 2.25v2c0 1.907.002 3.262.14 4.29.135 1.005.389 1.585.812 2.008.423.423 1.003.677 2.009.812 1.028.138 2.382.14 4.289.14h4a.75.75 0 010 1.5H9.944c-1.838 0-3.294 0-4.433-.153-1.172-.158-2.121-.49-2.87-1.238-.748-.749-1.08-1.698-1.238-2.87-.153-1.14-.153-2.595-.153-4.433v-2.112c0-1.031 0-1.942.027-2.744a.75.75 0 01.02-.46c.022-.445.056-.854.106-1.229.158-1.172.49-2.121 1.238-2.87.749-.748 1.698-1.08 2.87-1.238.233-.031.48-.056.739-.076V2.5A.75.75 0 017 1.75zm-4.168 6.5h18.336c-.016-.19-.035-.369-.058-.54-.135-1.005-.389-1.585-.812-2.008-.423-.423-1.003-.677-2.009-.812-1.027-.138-2.382-.14-4.289-.14h-4c-1.907 0-3.261.002-4.29.14-1.005.135-1.585.389-2.008.812-.423.423-.677 1.003-.812 2.009-.023.17-.042.35-.058.539zM18 15.75a2.25 2.25 0 100 4.5 2.25 2.25 0 000-4.5zM14.25 18a3.75 3.75 0 116.879 2.068l1.401 1.402a.75.75 0 11-1.06 1.06l-1.402-1.401A3.75 3.75 0 0114.25 18z"/></svg><svg viewBox="0 0 18 18" id="check-mark" xmlns="http://www.w3.org/2000/svg"><path d="M9 0a9 9 0 100 18A9 9 0 009 0zm5.03 7.28l-5.67 5.67a.75.75 0 01-1.06 0l-2.59-2.59A.75.75 0 115.77 9.3l2.06 2.06 5.14-5.14a.75.75 0 111.06 1.06z"/></svg><svg viewBox="0 0 20 20" id="delete" xmlns="http://www.w3.org/2000/svg"><path d="M10 0C4.478 0 0 4.478 0 10c0 5.523 4.478 10 10 10 5.523 0 10-4.477 10-10 0-5.522-4.477-10-10-10zm1.178 10l2.744 2.744a.832.832 0 11-1.178 1.178L10 11.178l-2.744 2.744a.832.832 0 11-1.179-1.178L8.822 10 6.078 7.256a.832.832 0 111.178-1.179L10 8.822l2.744-2.744a.832.832 0 111.178 1.178L11.178 10z"/></svg><svg viewBox="0 0 17 17" id="edit" xmlns="http://www.w3.org/2000/svg"><path d="M14.045 0c-.362 0-.725.138-1.002.415l-1.71 1.71 3.542 3.542 1.71-1.71a1.417 1.417 0 000-2.004L15.047.415A1.412 1.412 0 0014.045 0zM9.917 3.542L1.6 11.858s.65-.058.892.184.043 1.827.34 2.125c.298.297 1.873.088 2.1.314.225.226.21.918.21.918l8.316-8.316-3.542-3.541zM.708 14.167L.04 16.059a.709.709 0 00.167.734.708.708 0 00.74.164l.019-.005.004-.003 1.863-.657-1.062-1.063-1.063-1.062z"/></svg><svg viewBox="0 0 12 19" id="pin" xmlns="http://www.w3.org/2000/svg"><path d="M12 18.25L6 13l-6 5.25V1.75A1.5 1.5 0 011.5.25h9a1.5 1.5 0 011.5 1.5v16.5z"/></svg><svg viewBox="0 0 10 7" id="vector" xmlns="http://www.w3.org/2000/svg"><path d="M1 1l4 4 4-4"/></svg></svg>