<?xml version="1.0" encoding="utf-8"?><svg viewBox="0 0 800 800" xmlns="http://www.w3.org/2000/svg" xmlns:xlink="http://www.w3.org/1999/xlink"><style>:root>svg{display:none}:root>svg:target{display:block}</style><svg viewBox="0 0 24 24" id="add_btn" xmlns="http://www.w3.org/2000/svg"><path fill-rule="evenodd" clip-rule="evenodd" d="M23.112 4.494c.318-1.55-1.205-2.837-2.68-2.267L2.342 9.216c-1.647.637-1.72 2.941-.117 3.682l3.94 1.818 1.873 6.559a1 1 0 0 0 1.67.432l2.886-2.887 4.043 3.033a2 2 0 0 0 3.16-1.198l3.315-16.16ZM3.063 11.082l18.09-6.99-3.316 16.161L13.1 16.7a1 1 0 0 0-1.307.093l-1.236 1.236.371-2.043 7.28-7.279a1 1 0 0 0-1.204-1.575L6.95 12.876l-3.888-1.794Zm5.114 3.397.606 2.123.233-1.281a1 1 0 0 1 .277-.528l2.22-2.22-3.336 1.906Z"/></svg><svg viewBox="0 0 18 18" id="check-mark" xmlns="http://www.w3.org/2000/svg"><path d="M9 0a9 9 0 1 0 0 18A9 9 0 0 0 9 0Zm5.03 7.28-5.67 5.67a.75.75 0 0 1-1.06 0l-2.59-2.59A.75.75 0 1 1 5.77 9.3l2.06 2.06 5.14-5.14a.75.75 0 1 1 1.06 1.06Z"/></svg><svg viewBox="0 0 20 20" id="delete" xmlns="http://www.w3.org/2000/svg"><path d="M10 0C4.478 0 0 4.478 0 10c0 5.523 4.478 10 10 10 5.523 0 10-4.477 10-10 0-5.522-4.477-10-10-10Zm1.178 10 2.744 2.744a.832.832 0 1 1-1.178 1.178L10 11.178l-2.744 2.744a.832.832 0 1 1-1.179-1.178L8.822 10 6.078 7.256a.832.832 0 1 1 1.178-1.179L10 8.822l2.744-2.744a.832.832 0 1 1 1.178 1.178L11.178 10Z"/></svg><svg viewBox="0 0 17 17" id="edit" xmlns="http://www.w3.org/2000/svg"><path d="M14.045 0c-.362 0-.725.138-1.002.415l-1.71 1.71 3.542 3.542 1.71-1.71a1.417 1.417 0 0 0 0-2.004L15.047.415A1.412 1.412 0 0 0 14.045 0ZM9.917 3.542 1.6 11.858s.65-.058.892.184.043 1.827.34 2.125c.298.297 1.873.088 2.1.314.225.226.21.918.21.918l8.316-8.316-3.542-3.541ZM.708 14.167.04 16.059a.709.709 0 0 0 .167.734.708.708 0 0 0 .74.164l.019-.005.004-.003 1.863-.657-1.062-1.063-1.063-1.062Z"/></svg><svg viewBox="0 0 12 19" id="pin" xmlns="http://www.w3.org/2000/svg"><path d="M12 18.25 6 13l-6 5.25V1.75A1.5 1.5 0 0 1 1.5.25h9a1.5 1.5 0 0 1 1.5 1.5v16.5Z"/></svg><svg viewBox="0 0 10 7" id="vector" xmlns="http://www.w3.org/2000/svg"><path d="m1 1 4 4 4-4"/></svg></svg>