<?xml version="1.0" standalone="no"?>
<!DOCTYPE svg PUBLIC "-//W3C//DTD SVG 20010904//EN"
 "http://www.w3.org/TR/2001/REC-SVG-20010904/DTD/svg10.dtd">
<svg version="1.0" xmlns="http://www.w3.org/2000/svg"
 width="2000.000000pt" height="2000.000000pt" viewBox="0 0 2000.000000 2000.000000"
 preserveAspectRatio="xMidYMid meet">
<metadata>
Created by potrace 1.14, written by Peter Selinger 2001-2017
</metadata>
<g transform="translate(0.000000,2000.000000) scale(0.100000,-0.100000)"
fill="#000000" stroke="none">
<path d="M8655 19083 c-585 -47 -1076 -314 -1415 -768 -231 -310 -356 -682
-366 -1090 l-5 -170 -1914 -3 -1915 -2 0 -7545 0 -7545 4758 0 c4638 0 4756
-1 4727 -19 -44 -26 -87 -80 -83 -105 7 -48 112 -85 303 -106 124 -14 615 -12
815 2 179 13 341 14 664 3 l209 -7 -7 121 c-9 166 -21 223 -67 318 -39 81 -39
82 -40 210 l-1 128 -19 -95 c-20 -101 -26 -111 -101 -150 -51 -27 -142 -50
-198 -50 -73 0 -178 27 -262 66 -43 21 -83 43 -89 50 -7 8 -3 51 13 139 l22
127 30 -7 c148 -30 241 -37 451 -32 221 5 356 23 381 50 6 7 241 1029 523
2272 281 1243 515 2269 520 2280 10 25 15 2 76 -330 118 -648 354 -2297 542
-3792 l48 -382 46 -10 c126 -27 203 -33 449 -33 217 0 288 3 393 20 70 11 130
22 134 25 3 3 -7 275 -21 604 -57 1309 -76 1874 -76 2278 0 420 -16 800 -80
1970 -23 409 -86 1475 -91 1532 -5 60 -149 -547 -149 -630 0 -46 -13 -51 -66
-24 -186 94 -360 306 -469 572 -27 64 -34 90 -25 93 7 3 48 22 91 44 126 63
141 88 212 346 18 62 23 61 -106 28 -136 -35 -202 -70 -362 -191 -221 -167
-357 -238 -550 -287 -77 -19 -115 -23 -270 -22 -161 0 -193 3 -298 28 -131 30
-313 90 -415 137 -36 16 -66 28 -68 26 -1 -1 -49 -310 -106 -687 l-103 -684
-3 1451 -2 1451 -103 -103 c-206 -207 -330 -223 -524 -65 l-63 51 0 -3510 0
-3511 -60 -342 c-33 -189 -65 -367 -71 -395 l-10 -53 -4880 0 -4879 0 0 6765
0 6765 1550 0 1550 0 0 260 0 260 588 0 588 0 13 37 c20 55 105 133 196 180
151 78 319 113 539 113 228 -1 377 -30 534 -106 103 -50 191 -128 213 -188
l13 -36 588 0 588 0 0 -260 0 -260 1470 0 1470 0 4 -1247 c2 -687 4 -1257 4
-1268 0 -11 -2 -369 -4 -796 l-4 -776 41 -104 c23 -57 74 -198 114 -313 l72
-209 82 136 c62 103 81 143 81 172 0 54 174 466 266 631 l34 61 0 2236 0 2237
-1831 0 -1832 0 6 69 c8 94 -9 307 -34 437 -143 742 -734 1339 -1475 1489
-173 35 -360 50 -499 38z"/>
<path d="M8706 16989 c-19 -15 -26 -30 -26 -55 0 -47 14 -70 50 -83 83 -28
147 72 85 134 -30 31 -73 32 -109 4z"/>
<path d="M15850 16130 c-162 -17 -265 -47 -406 -120 -72 -37 -155 -75 -185
-85 -192 -63 -379 -206 -443 -338 -49 -102 -43 -211 15 -270 25 -24 35 -28 61
-23 l31 6 -7 -50 c-11 -81 3 -150 36 -184 28 -27 32 -28 98 -24 77 6 137 35
145 71 2 12 16 85 30 162 14 77 28 147 31 157 7 22 92 42 146 33 24 -4 77 -16
118 -28 62 -17 100 -21 215 -20 77 0 160 5 185 10 25 5 52 6 60 2 8 -4 38 -18
65 -32 28 -14 76 -33 108 -42 32 -9 60 -22 63 -29 3 -7 -5 -66 -17 -132 -16
-87 -23 -160 -23 -269 -1 -132 2 -158 22 -217 18 -53 33 -76 69 -107 l45 -40
-31 -185 c-17 -101 -31 -193 -31 -204 0 -14 12 -25 40 -36 22 -9 44 -16 49
-16 4 0 14 53 21 118 14 128 31 174 80 215 106 90 222 41 271 -113 59 -186 5
-340 -160 -455 -48 -33 -81 -65 -98 -94 l-26 -44 63 6 c107 9 215 70 331 186
111 112 185 219 273 401 136 279 199 520 200 760 0 152 -15 225 -65 328 -76
156 -250 259 -471 279 l-73 6 -39 81 c-48 98 -159 214 -251 263 -132 69 -326
95 -545 73z"/>
<path d="M12385 12654 c-247 -190 -512 -392 -587 -449 l-138 -105 -281 250
c-288 255 -308 269 -343 234 -39 -38 -27 -51 291 -333 262 -232 311 -272 334
-269 18 2 229 157 617 452 l589 450 -9 50 c-5 28 -13 54 -16 57 -4 4 -209
-148 -457 -337z"/>
<path d="M14594 11978 c4 -29 18 -188 31 -352 14 -165 27 -301 30 -304 16 -16
14 38 -10 335 -28 357 -30 373 -46 373 -7 0 -8 -19 -5 -52z"/>
<path d="M16568 11925 c-16 -16 75 -318 163 -540 33 -82 88 -211 122 -285 l63
-135 57 -3 c35 -2 57 1 57 8 0 5 -21 10 -48 10 l-49 0 -62 136 c-125 273 -217
522 -261 704 -22 94 -31 116 -42 105z"/>
<path d="M12353 8940 c-375 -286 -686 -520 -692 -520 -5 0 -134 110 -286 245
-229 204 -281 245 -306 245 -35 0 -58 -37 -43 -69 5 -11 144 -139 309 -285
206 -183 306 -266 322 -266 33 0 1442 1076 1449 1107 8 29 -20 63 -50 63 -13
0 -299 -212 -703 -520z"/>
<path d="M13040 5332 c-8 -3 -319 -237 -690 -520 -371 -283 -680 -515 -686
-516 -7 -1 -134 107 -284 239 -149 132 -280 244 -290 249 -13 6 -27 4 -45 -8
-52 -34 -36 -57 165 -236 396 -352 431 -381 451 -378 32 5 1438 1080 1445
1105 11 41 -27 78 -66 65z"/>
<path d="M16845 2400 c-85 -13 -211 -55 -271 -89 l-51 -30 -19 -93 c-23 -112
-26 -330 -6 -365 27 -48 133 -76 357 -92 237 -18 835 -8 963 15 31 6 32 8 32
53 0 47 -28 121 -58 154 -31 35 -106 64 -230 92 -275 60 -381 125 -427 264 -9
27 -21 54 -28 59 -40 31 -166 46 -262 32z"/>
<path d="M10560 1175 c-10 -12 -10 -19 -2 -27 22 -22 12 -37 -29 -48 -43 -12
-50 -37 -8 -32 13 2 57 6 97 9 50 4 72 9 72 19 0 8 -15 14 -42 16 -42 3 -43 4
-43 38 0 39 -23 52 -45 25z"/>
<path d="M10776 1052 c-3 -5 11 -24 31 -43 19 -19 43 -46 52 -61 11 -18 21
-24 30 -19 10 7 10 14 -3 39 -20 39 -20 39 4 45 24 6 27 35 4 44 -11 4 -23 -2
-33 -16 l-17 -22 -19 20 c-19 22 -40 27 -49 13z"/>
<path d="M11134 1037 c-21 -18 -29 -36 -33 -73 -5 -44 -9 -49 -33 -52 -25 -3
-28 -8 -28 -38 0 -31 2 -34 30 -34 l30 0 0 -105 0 -105 35 0 35 0 0 105 0 105
45 0 c45 0 45 0 45 34 0 34 -1 35 -42 38 -41 3 -43 5 -41 32 3 36 19 48 56 41
27 -5 28 -3 25 33 -3 36 -4 37 -49 40 -38 2 -52 -2 -75 -21z"/>
<path d="M12440 1040 c-23 -23 -24 -33 -10 -61 12 -22 59 -26 78 -7 19 19 15
66 -7 78 -28 14 -38 13 -61 -10z"/>
<path d="M10511 1024 c-84 -42 -137 -131 -129 -219 2 -33 8 -42 33 -54 39 -19
220 -20 295 -2 64 16 149 56 156 74 8 21 -22 103 -51 140 -64 85 -200 112
-304 61z m74 -109 c28 -27 32 -61 10 -92 -49 -70 -160 0 -120 77 24 47 72 54
110 15z m173 9 c26 -18 28 -50 5 -76 -38 -43 -105 0 -84 55 8 22 18 29 51 36
3 0 16 -6 28 -15z"/>
<path d="M12560 840 l0 -210 40 0 40 0 0 52 0 52 53 -52 c49 -48 56 -52 101
-52 l48 0 -66 74 -66 74 67 66 68 66 -49 0 c-43 0 -53 -5 -100 -46 l-51 -47
-3 117 -3 116 -39 0 -40 0 0 -210z"/>
<path d="M7380 950 c0 -38 -3 -70 -7 -70 -3 0 -14 7 -23 15 -46 41 -139 22
-173 -34 -24 -42 -23 -147 2 -185 38 -58 98 -71 164 -36 31 17 37 17 37 5 0
-8 9 -15 20 -15 19 0 20 7 20 195 0 188 -1 195 -20 195 -18 0 -20 -7 -20 -70z
m-57 -79 c45 -17 57 -38 57 -102 0 -45 -5 -64 -20 -79 -50 -50 -130 -29 -151
40 -16 54 1 114 39 134 32 18 43 19 75 7z"/>
<path d="M9330 950 l0 -70 -32 20 c-65 39 -137 16 -169 -53 -52 -115 16 -238
123 -224 22 3 48 13 59 23 17 16 19 16 19 1 0 -11 8 -17 25 -17 l25 0 0 195 0
195 -25 0 c-24 0 -25 -2 -25 -70z m-18 -97 c28 -25 26 -143 -3 -169 -29 -26
-93 -25 -120 3 -46 45 -31 160 24 183 29 12 76 4 99 -17z"/>
<path d="M9590 825 c0 -188 1 -195 20 -195 11 0 20 7 20 15 0 11 7 10 35 -7
49 -28 107 -20 149 21 26 26 31 39 34 94 6 97 -31 154 -107 164 -30 4 -49 0
-76 -15 l-35 -21 0 69 c0 63 -2 70 -20 70 -19 0 -20 -7 -20 -195z m182 26 c28
-25 32 -34 32 -81 0 -47 -4 -56 -32 -81 -38 -34 -65 -36 -109 -9 -32 19 -33
21 -33 90 0 69 1 71 33 90 44 27 71 25 109 -9z"/>
<path d="M10382 996 c-20 -27 -42 -34 -42 -15 0 6 -10 9 -22 7 -30 -4 -29 -30
0 -43 18 -8 22 -15 17 -35 -11 -42 -11 -44 8 -48 11 -2 17 3 17 14 0 10 14 42
31 72 33 60 27 94 -9 48z"/>
<path d="M8064 995 c-8 -21 2 -45 19 -45 20 0 40 27 33 45 -7 19 -45 20 -52 0z"/>
<path d="M7551 902 c-97 -52 -95 -219 3 -266 19 -9 48 -16 65 -16 41 0 111 29
111 45 0 22 -16 26 -46 10 -47 -24 -91 -19 -125 14 -16 16 -29 39 -29 50 0 20
5 21 110 21 l110 0 0 33 c0 96 -111 156 -199 109z m123 -44 c13 -13 27 -33 31
-45 6 -23 5 -23 -88 -23 -90 0 -95 1 -90 20 17 64 99 90 147 48z"/>
<path d="M7844 910 c-28 -11 -54 -48 -54 -77 0 -35 32 -60 100 -79 69 -19 87
-40 64 -72 -19 -28 -77 -29 -121 -3 -27 17 -32 18 -37 5 -10 -27 -7 -32 39
-50 88 -33 175 4 175 77 0 38 -28 65 -82 79 -24 6 -53 15 -65 20 -25 10 -30
39 -11 58 17 17 79 15 106 -4 23 -16 42 -12 42 10 0 33 -105 57 -156 36z"/>
<path d="M8245 910 c-46 -18 -69 -58 -73 -124 -5 -71 12 -115 54 -142 35 -24
99 -21 135 5 l29 22 0 -31 c0 -44 -47 -90 -92 -90 -18 0 -48 9 -65 20 -32 19
-33 19 -43 -1 -10 -17 -6 -22 32 -39 70 -32 151 -20 188 27 18 23 20 40 20
189 0 157 -1 164 -20 164 -11 0 -20 -7 -20 -15 0 -12 -6 -11 -32 5 -34 21 -78
25 -113 10z m113 -50 c31 -19 32 -22 32 -83 0 -54 -4 -67 -24 -86 -28 -27 -86
-32 -112 -10 -51 42 -53 132 -2 174 36 30 62 31 106 5z"/>
<path d="M8587 900 c-31 -17 -37 -17 -37 -5 0 8 -9 15 -20 15 -19 0 -20 -7
-20 -140 0 -133 1 -140 20 -140 19 0 20 7 20 105 l0 105 33 20 c38 24 66 25
93 6 16 -12 19 -29 22 -125 3 -101 5 -111 23 -111 18 0 19 9 19 120 0 115 -1
122 -25 145 -30 31 -76 33 -128 5z"/>
<path d="M8871 902 c-97 -52 -95 -219 3 -266 19 -9 48 -16 65 -16 41 0 111 29
111 45 0 22 -16 26 -46 10 -47 -24 -91 -19 -125 14 -16 16 -29 39 -29 50 0 20
5 21 110 21 l110 0 0 33 c0 96 -111 156 -199 109z m123 -44 c13 -13 27 -33 31
-45 6 -23 5 -23 -88 -23 -90 0 -95 1 -90 20 17 64 99 90 147 48z"/>
<path d="M11392 904 c-12 -8 -22 -10 -22 -5 0 6 -18 11 -40 11 l-40 0 0 -140
0 -140 40 0 40 0 0 86 c0 47 5 94 10 104 6 11 26 22 45 26 35 6 71 46 60 64
-10 15 -68 12 -93 -6z"/>
<path d="M11543 900 c-43 -26 -67 -74 -67 -136 0 -59 19 -95 67 -124 39 -24
113 -26 162 -6 39 17 44 35 16 60 -16 14 -23 15 -41 6 -32 -17 -78 -15 -100 5
-11 10 -20 22 -20 27 0 4 45 8 100 8 l100 0 0 33 c-1 53 -33 111 -73 130 -47
23 -105 21 -144 -3z m125 -77 l14 -23 -61 0 c-63 0 -72 7 -45 35 23 22 73 16
92 -12z"/>
<path d="M11854 904 c-67 -33 -93 -137 -54 -213 23 -46 70 -71 134 -71 42 0
116 25 116 40 0 4 -11 17 -25 30 -20 19 -27 21 -39 10 -27 -21 -88 -15 -109
12 l-19 23 101 3 101 3 0 42 c0 106 -108 169 -206 121z m120 -76 c15 -25 5
-29 -58 -26 l-57 3 17 23 c12 18 24 22 51 20 20 -2 41 -10 47 -20z"/>
<path d="M12198 905 c-16 -9 -28 -11 -28 -5 0 5 -16 10 -35 10 l-35 0 0 -200
0 -200 40 0 40 0 0 66 c0 59 2 65 18 58 9 -4 38 -9 65 -12 44 -4 50 -1 86 35
65 64 67 154 7 220 -27 30 -40 36 -82 39 -32 3 -58 -1 -76 -11z m102 -81 c24
-23 19 -93 -9 -115 -66 -54 -147 22 -107 100 9 16 24 32 33 34 26 7 66 -2 83
-19z"/>
<path d="M8070 770 c0 -133 1 -140 20 -140 19 0 20 7 20 140 0 133 -1 140 -20
140 -19 0 -20 -7 -20 -140z"/>
<path d="M9870 906 c0 -2 25 -63 55 -136 30 -73 55 -140 55 -150 0 -28 -40
-71 -60 -65 -12 4 -19 -1 -23 -15 -4 -15 1 -22 18 -26 25 -6 79 17 88 38 3 7
37 89 76 182 39 93 71 171 71 173 0 1 -11 3 -24 3 -21 0 -29 -11 -56 -77 -18
-43 -39 -94 -47 -113 l-15 -35 -45 113 c-40 99 -48 112 -69 112 -13 0 -24 -2
-24 -4z"/>
<path d="M12440 770 l0 -140 35 0 35 0 0 140 0 140 -35 0 -35 0 0 -140z"/>
<path d="M10846 771 c-11 -17 -127 -51 -212 -61 -54 -7 -105 -7 -150 -1 -37 6
-71 8 -74 5 -10 -11 89 -90 127 -102 94 -28 189 -9 251 51 34 32 78 105 69
114 -3 2 -8 0 -11 -6z"/>
</g>
</svg>
